<svg preserveAspectRatio="none" overflow="visible" style="display: block;" width="60" height="60" viewBox="0 0 60 60" fill="none" xmlns="http://www.w3.org/2000/svg">
<g id="Frame 1171277666">
<path id="Vector" d="M50.7592 15.0545C49.2374 13.4844 47.2811 12.4049 45.1415 11.9545C44.8182 10.6619 44.2131 9.45682 43.3694 8.42558C42.744 7.61694 41.9467 6.95738 41.0352 6.49457C40.1237 6.03176 39.1208 5.77727 38.0989 5.74951H20.5155C17.1347 5.74951 13.9121 8.56858 12.9622 11.9801C10.9556 12.4734 9.15375 13.5824 7.80928 15.1515C5.9736 17.3072 4.97637 20.0522 5.00043 22.8835V43.5209C4.98135 46.4495 6.0768 49.2758 8.06463 51.4266C9.02429 52.478 10.1924 53.318 11.4946 53.893C12.7969 54.4681 14.2046 54.7656 15.6281 54.7665H43.068C44.5046 54.7589 45.9251 54.4641 47.2459 53.8992C48.5668 53.3344 49.7613 52.511 50.7592 51.4776C52.8514 49.3618 54.0257 46.5068 54.0277 43.5311V22.8733C54.0143 19.9375 52.8391 17.1264 50.7592 15.0545ZM29.4834 40.472C27.6653 40.472 25.888 39.9329 24.3763 38.9228C22.8645 37.9127 21.6863 36.477 20.9905 34.7973C20.2948 33.1176 20.1127 31.2692 20.4674 29.486C20.8221 27.7028 21.6976 26.0649 22.9832 24.7793C24.2689 23.4937 25.9068 22.6182 27.69 22.2635C29.4732 21.9088 31.3215 22.0908 33.0013 22.7866C34.681 23.4823 36.1167 24.6606 37.1268 26.1723C38.1369 27.684 38.676 29.4613 38.676 31.2794C38.676 33.7175 37.7075 36.0556 35.9836 37.7796C34.2596 39.5035 31.9214 40.472 29.4834 40.472Z" fill="#BBBBBB"/>
<circle id="Ellipse 2113" cx="29.5" cy="31.5" r="6.5" fill="#BBBBBB"/>
</g>
</svg>
